<svg width="72" height="72" viewBox="0 0 72 72" fill="none" xmlns="http://www.w3.org/2000/svg">
<path fill-rule="evenodd" clip-rule="evenodd" d="M36 1C55.33 1 71 16.67 71 36C71 55.33 55.33 71 36 71C16.67 71 1 55.33 1 36C1 16.67 16.67 1 36 1ZM36 6C52.5685 6 66 19.4315 66 36C66 52.5685 52.5685 66 36 66C19.4315 66 6 52.5685 6 36C6 19.4315 19.4315 6 36 6Z" fill="#D97474"/>
<path d="M71.5 36C71.5 16.3939 55.6061 0.5 36 0.5V1.5C55.0538 1.5 70.5 16.9462 70.5 36H71.5ZM36 71.5C55.6061 71.5 71.5 55.6061 71.5 36H70.5C70.5 55.0538 55.0538 70.5 36 70.5V71.5ZM0.5 36C0.5 55.6061 16.3939 71.5 36 71.5V70.5C16.9462 70.5 1.5 55.0538 1.5 36H0.5ZM36 0.5C16.3939 0.5 0.5 16.3939 0.5 36H1.5C1.5 16.9462 16.9462 1.5 36 1.5V0.5ZM66.5 36C66.5 19.1553 52.8447 5.5 36 5.5V6.5C52.2924 6.5 65.5 19.7076 65.5 36H66.5ZM36 66.5C52.8447 66.5 66.5 52.8447 66.5 36H65.5C65.5 52.2924 52.2924 65.5 36 65.5V66.5ZM5.5 36C5.5 52.8447 19.1553 66.5 36 66.5V65.5C19.7076 65.5 6.5 52.2924 6.5 36H5.5ZM36 5.5C19.1553 5.5 5.5 19.1553 5.5 36H6.5C6.5 19.7076 19.7076 6.5 36 6.5V5.5Z" fill="#D97474"/>
</svg>
